ffmpeg version N-82167-g5e96558 Copyright (c) 2000-2016 the FFmpeg developers
  built with gcc 5.4.0 (Ubuntu 5.4.0-6ubuntu1~16.04.2) 20160609
  configuration: --prefix=/root/ffmpeg_build --pkg-config-flags=--static --extra-cflags=-I/root/ffmpeg_build/include --extra-ldflags=-L/root/ffmpeg_build/lib --bindir=/root/bin --enable-gpl --enable-libass --enable-libfdk-aac --enable-libfreetype --enable-libmp3lame --enable-libopus --enable-libtheora --enable-libvorbis --enable-libx264 --enable-libx265 --enable-nonfree
  libavutil      55. 35.100 / 55. 35.100
  libavcodec     57. 65.100 / 57. 65.100
  libavformat    57. 57.100 / 57. 57.100
  libavdevice    57.  2.100 / 57.  2.100
  libavfilter     6. 66.100 /  6. 66.100
  libswscale      4.  3.100 /  4.  3.100
  libswresample   2.  4.100 /  2.  4.100
  libpostproc    54.  2.100 / 54.  2.100
Input #0, matroska,webm, from '/media/yubikiri/bot/queue/3AnimePahe_Detective_Conan_-_025_720p_Fansub.mkv':
  Metadata:
    title           : 3|Text||0|0
    ENCODER         : Lavf57.57.100
  Duration: 00:24:28.97, start: 0.000000, bitrate: 994 kb/s
    Stream #0:0: Video: mpeg4 (Simple Profile), yuv420p, 640x480 [SAR 1:1 DAR 4:3], 23.98 fps, 23.98 tbr, 1k tbn, 23.98 tbc (default)
    Metadata:
      DURATION        : 00:24:28.969000000
    Stream #0:1: Audio: mp3, 48000 Hz, stereo, s16p, 128 kb/s (default)
    Metadata:
      DURATION        : 00:24:28.920000000
[libx264 @ 0x30b0540] using SAR=1/1
[libx264 @ 0x30b0540] using cpu capabilities: MMX2 SSE2Fast SSSE3 SSE4.2 AVX FMA3 AVX2 LZCNT BMI2
[libx264 @ 0x30b0540] profile High, level 3.1
[libx264 @ 0x30b0540] 264 - core 148 r2643 5c65704 - H.264/MPEG-4 AVC codec - Copyleft 2003-2015 - http://www.videolan.org/x264.html - options: cabac=1 ref=8 deblock=1:1:1 analyse=0x3:0x133 me=umh subme=7 psy=1 psy_rd=0.00:0.00 mixed_ref=1 me_range=8 chroma_me=1 trellis=0 8x8dct=1 cqm=0 deadzone=21,11 fast_pskip=1 chroma_qp_offset=0 threads=8 lookahead_threads=2 sliced_threads=0 nr=0 decimate=1 interlaced=0 bluray_compat=0 constrained_intra=0 bframes=3 b_pyramid=2 b_adapt=2 b_bias=0 direct=1 weightb=1 open_gop=0 weightp=2 keyint=240 keyint_min=24 scenecut=40 intra_refresh=0 rc_lookahead=60 rc=crf mbtree=1 crf=27.0 qcomp=0.60 qpmin=0 qpmax=69 qpstep=4 ip_ratio=1.40 aq=1:1.00
[libfdk_aac @ 0x3036ec0] Note, the VBR setting is unsupported and only works with some parameter combinations
Output #0, mp4, to '/media/yubikiri/bot/queue/3AnimePahe_Detective_Conan_-_025_720p_Fansub.mkv_encoded.mp4':
  Metadata:
    encoder         : Lavf57.57.100
    Stream #0:0: Video: h264 (libx264) ([33][0][0][0] / 0x0021), yuv420p, 640x480 [SAR 1:1 DAR 4:3], q=-1--1, 23.98 fps, 11988 tbn, 23.98 tbc (default)
    Metadata:
      encoder         : Lavc57.65.100 libx264
    Side data:
      cpb: bitrate max/min/avg: 0/0/0 buffer size: 0 vbv_delay: -1
    Stream #0:1: Audio: aac (libfdk_aac) (HE-AACv2) ([64][0][0][0] / 0x0040), 48000 Hz, stereo, s16, 48 kb/s (default)
    Metadata:
      encoder         : Lavc57.65.100 libfdk_aac
Stream mapping:
  Stream #0:0 -> #0:0 (mpeg4 (native) -> h264 (libx264))
  Stream #0:1 -> #0:1 (mp3 (native) -> aac (libfdk_aac))
Press [q] to stop, [?] for help
frame=  131 fps=0.0 q=32.0 size=     112kB time=00:00:05.61 bitrate= 162.8kbits/s dup=1 drop=0 speed=11.2x    frame=  240 fps=239 q=32.0 size=     312kB time=00:00:10.17 bitrate= 251.4kbits/s dup=1 drop=0 speed=10.1x    frame=  319 fps=212 q=32.0 size=     551kB time=00:00:13.46 bitrate= 335.1kbits/s dup=1 drop=0 speed=8.93x    frame=  365 fps=182 q=32.0 size=     746kB time=00:00:15.38 bitrate= 397.4kbits/s dup=1 drop=0 speed=7.66x    frame=  440 fps=175 q=32.0 size=     960kB time=00:00:18.49 bitrate= 425.4kbits/s dup=1 drop=0 speed=7.36x    frame=  541 fps=179 q=32.0 size=    1126kB time=00:00:22.72 bitrate= 406.0kbits/s dup=1 drop=0 speed=7.53x    frame=  619 fps=176 q=32.0 size=    1298kB time=00:00:25.96 bitrate= 409.4kbits/s dup=1 drop=0 speed=7.38x    frame=  698 fps=174 q=32.0 size=    1502kB time=00:00:29.29 bitrate= 420.0kbits/s dup=1 drop=0 speed=7.28x    frame=  760 fps=167 q=32.0 size=    1654kB time=00:00:31.85 bitrate= 425.4kbits/s dup=1 drop=0 speed=7.02x    frame=  800 fps=158 q=32.0 size=    1825kB time=00:00:33.51 bitrate= 446.1kbits/s dup=1 drop=0 speed=6.63x    frame=  836 fps=149 q=32.0 size=    2012kB time=00:00:35.00 bitrate= 470.8kbits/s dup=1 drop=0 speed=6.25x    frame=  881 fps=144 q=32.0 size=    2226kB time=00:00:36.88 bitrate= 494.4kbits/s dup=1 drop=0 speed=6.04x    frame=  939 fps=142 q=32.0 size=    2415kB time=00:00:39.31 bitrate= 503.2kbits/s dup=1 drop=0 speed=5.95x    frame= 1016 fps=143 q=32.0 size=    2601kB time=00:00:42.51 bitrate= 501.1kbits/s dup=1 drop=0 speed=5.98x    frame= 1091 fps=143 q=32.0 size=    2801kB time=00:00:45.67 bitrate= 502.4kbits/s dup=1 drop=0 speed=   6x    frame= 1167 fps=143 q=32.0 size=    2964kB time=00:00:48.83 bitrate= 497.2kbits/s dup=1 drop=0 speed=   6x    frame= 1215 fps=141 q=32.0 size=    3221kB time=00:00:50.83 bitrate= 519.0kbits/s dup=1 drop=0 speed=5.89x    frame= 1310 fps=143 q=32.0 size=    3450kB time=00:00:54.76 bitrate= 516.1kbits/s dup=1 drop=0 speed=5.99x    frame= 1369 fps=142 q=32.0 size=    3650kB time=00:00:57.28 bitrate= 522.0kbits/s dup=1 drop=0 speed=5.94x    frame= 1441 fps=141 q=32.0 size=    3866kB time=00:01:00.26 bitrate= 525.5kbits/s dup=1 drop=0 speed=5.92x    frame= 1514 fps=142 q=32.0 size=    4106kB time=00:01:03.29 bitrate= 531.4kbits/s dup=1 drop=0 speed=5.92x    frame= 1600 fps=143 q=32.0 size=    4310kB time=00:01:06.88 bitrate= 527.9kbits/s dup=1 drop=0 speed=5.97x    frame= 1668 fps=142 q=32.0 size=    4500kB time=00:01:09.73 bitrate= 528.6kbits/s dup=1 drop=0 speed=5.95x    frame= 1734 fps=142 q=32.0 size=    4681kB time=00:01:12.47 bitrate= 529.1kbits/s dup=1 drop=0 speed=5.93x    frame= 1789 fps=141 q=32.0 size=    4889kB time=00:01:14.77 bitrate= 535.6kbits/s dup=1 drop=0 speed=5.88x    frame= 1829 fps=138 q=32.0 size=    5062kB time=00:01:16.43 bitrate= 542.5kbits/s dup=1 drop=0 speed=5.78x    frame= 1884 fps=137 q=32.0 size=    5256kB time=00:01:18.74 bitrate= 546.8kbits/s dup=1 drop=0 speed=5.73x    frame= 1950 fps=137 q=32.0 size=    5436kB time=00:01:21.47 bitrate= 546.5kbits/s dup=1 drop=0 speed=5.72x    frame= 2040 fps=138 q=32.0 size=    5615kB time=00:01:25.22 bitrate= 539.7kbits/s dup=1 drop=0 speed=5.78x    frame= 2120 fps=139 q=32.0 size=    5764kB time=00:01:28.59 bitrate= 533.0kbits/s dup=1 drop=0 speed=5.81x    frame= 2323 fps=147 q=32.0 size=    5916kB time=00:01:37.04 bitrate= 499.4kbits/s dup=1 drop=0 speed=6.15x    frame= 2502 fps=154 q=32.0 size=    6032kB time=00:01:44.51 bitrate= 472.8kbits/s dup=1 drop=0 speed=6.42x    frame= 2586 fps=154 q=32.0 size=    6170kB time=00:01:48.01 bitrate= 467.9kbits/s dup=1 drop=0 speed=6.44x    frame= 2660 fps=154 q=32.0 size=    6297kB time=00:01:51.08 bitrate= 464.4kbits/s dup=1 drop=0 speed=6.42x    frame= 2727 fps=153 q=32.0 size=    6429kB time=00:01:53.89 bitrate= 462.4kbits/s dup=1 drop=0 speed= 6.4x    frame= 2812 fps=154 q=32.0 size=    6567kB time=00:01:57.44 bitrate= 458.1kbits/s dup=1 drop=0 speed=6.42x    frame= 2939 fps=156 q=32.0 size=    6676kB time=00:02:02.73 bitrate= 445.6kbits/s dup=1 drop=0 speed=6.53x    frame= 3061 fps=159 q=32.0 size=    6868kB time=00:02:07.80 bitrate= 440.2kbits/s dup=1 drop=0 speed=6.62x    frame= 3181 fps=161 q=32.0 size=    7010kB time=00:02:12.84 bitrate= 432.3kbits/s dup=1 drop=0 speed=6.71x    frame= 3237 fps=159 q=32.0 size=    7106kB time=00:02:15.14 bitrate= 430.8kbits/s dup=1 drop=0 speed=6.65x    frame= 3295 fps=158 q=32.0 size=    7229kB time=00:02:17.57 bitrate= 430.4kbits/s dup=1 drop=0 speed=6.59x    frame= 3357 fps=157 q=32.0 size=    7317kB time=00:02:20.18 bitrate= 427.6kbits/s dup=1 drop=0 speed=6.56x    frame= 3425 fps=156 q=32.0 size=    7440kB time=00:02:22.99 bitrate= 426.2kbits/s dup=1 drop=0 speed=6.52x    frame= 3519 fps=157 q=32.0 size=    7539kB time=00:02:26.92 bitrate= 420.4kbits/s dup=1 drop=0 speed=6.55x    frame= 3586 fps=156 q=32.0 size=    7642kB time=00:02:29.73 bitrate= 418.1kbits/s dup=1 drop=0 speed=6.52x    frame= 3653 fps=156 q=32.0 size=    7753kB time=00:02:32.51 bitrate= 416.4kbits/s dup=1 drop=0 speed= 6.5x    frame= 3725 fps=155 q=32.0 size=    7880kB time=00:02:35.49 bitrate= 415.1kbits/s dup=1 drop=0 speed=6.49x    frame= 3847 fps=157 q=32.0 size=    7969kB time=00:02:40.61 bitrate= 406.4kbits/s dup=1 drop=0 speed=6.56x    frame= 3929 fps=157 q=32.0 size=    8095kB time=00:02:44.03 bitrate= 404.3kbits/s dup=1 drop=0 speed=6.56x    frame= 4000 fps=157 q=32.0 size=    8219kB time=00:02:46.97 bitrate= 403.2kbits/s dup=1 drop=0 speed=6.54x    frame= 4080 fps=157 q=32.0 size=    8363kB time=00:02:50.34 bitrate= 402.2kbits/s dup=1 drop=0 speed=6.55x    frame= 4161 fps=157 q=32.0 size=    8491kB time=00:02:53.71 bitrate= 400.4kbits/s dup=1 drop=0 speed=6.55x    frame= 4257 fps=157 q=32.0 size=    8593kB time=00:02:57.72 bitrate= 396.1kbits/s dup=1 drop=0 speed=6.57x    frame= 4325 fps=157 q=32.0 size=    8717kB time=00:03:00.54 bitrate= 395.5kbits/s dup=1 drop=0 speed=6.56x    frame= 4376 fps=156 q=32.0 size=    8832kB time=00:03:02.67 bitrate= 396.1kbits/s dup=1 drop=0 speed=6.51x    frame= 4441 fps=155 q=32.0 size=    8913kB time=00:03:05.36 bitrate= 393.9kbits/s dup=1 drop=0 speed=6.49x    frame= 4490 fps=154 q=32.0 size=    9031kB time=00:03:07.45 bitrate= 394.7kbits/s dup=1 drop=0 speed=6.45x    frame= 4533 fps=153 q=32.0 size=    9160kB time=00:03:09.20 bitrate= 396.6kbits/s dup=1 drop=0 speed=6.39x    frame= 4577 fps=152 q=32.0 size=    9293kB time=00:03:11.08 bitrate= 398.4kbits/s dup=1 drop=0 speed=6.34x    frame= 4608 fps=150 q=32.0 size=    9407kB time=00:03:12.36 bitrate= 400.6kbits/s dup=1 drop=0 speed=6.27x    frame= 4636 fps=149 q=32.0 size=    9518kB time=00:03:13.51 bitrate= 402.9kbits/s dup=1 drop=0 speed= 6.2x    frame= 4670 fps=147 q=32.0 size=    9645kB time=00:03:14.92 bitrate= 405.4kbits/s dup=1 drop=0 speed=6.15x    frame= 4718 fps=147 q=32.0 size=    9728kB time=00:03:16.92 bitrate= 404.7kbits/s dup=1 drop=0 speed=6.12x    frame= 4769 fps=146 q=32.0 size=    9816kB time=00:03:19.06 bitrate= 404.0kbits/s dup=1 drop=0 speed=6.09x    frame= 4844 fps=146 q=32.0 size=    9916kB time=00:03:22.21 bitrate= 401.7kbits/s dup=1 drop=0 speed=6.09x    frame= 4915 fps=146 q=32.0 size=   10030kB time=00:03:25.16 bitrate= 400.5kbits/s dup=1 drop=0 speed=6.08x    frame= 4982 fps=146 q=32.0 size=   10187kB time=00:03:27.97 bitrate= 401.3kbits/s dup=1 drop=0 speed=6.08x    frame= 5034 fps=145 q=32.0 size=   10345kB time=00:03:30.11 bitrate= 403.4kbits/s dup=1 drop=0 speed=6.05x    frame= 5123 fps=145 q=32.0 size=   10442kB time=00:03:33.82 bitrate= 400.1kbits/s dup=1 drop=0 speed=6.07x    frame= 5193 fps=145 q=32.0 size=   10583kB time=00:03:36.72 bitrate= 400.0kbits/s dup=1 drop=0 speed=6.07x    frame= 5236 fps=144 q=32.0 size=   10703kB time=00:03:38.56 bitrate= 401.2kbits/s dup=1 drop=0 speed=6.03x    frame= 5282 fps=144 q=32.0 size=   10808kB time=00:03:40.48 bitrate= 401.6kbits/s dup=1 drop=0 speed=   6x    frame= 5331 fps=143 q=32.0 size=   10895kB time=00:03:42.48 bitrate= 401.2kbits/s dup=1 drop=0 speed=5.97x    frame= 5392 fps=143 q=32.0 size=   10989kB time=00:03:45.04 bitrate= 400.0kbits/s dup=1 drop=0 speed=5.96x    frame= 5439 fps=142 q=32.0 size=   11079kB time=00:03:47.00 bitrate= 399.8kbits/s dup=1 drop=0 speed=5.93x    frame= 5525 fps=142 q=32.0 size=   11208kB time=00:03:50.59 bitrate= 398.2kbits/s dup=1 drop=0 speed=5.94x    frame= 5602 fps=142 q=32.0 size=   11298kB time=00:03:53.79 bitrate= 395.9kbits/s dup=1 drop=0 speed=5.94x    frame= 5656 fps=142 q=32.0 size=   11476kB time=00:03:56.05 bitrate= 398.3kbits/s dup=1 drop=0 speed=5.92x    frame= 5708 fps=141 q=32.0 size=   11639kB time=00:03:58.23 bitrate= 400.2kbits/s dup=1 drop=0 speed=5.91x    frame= 5762 fps=141 q=32.0 size=   11770kB time=00:04:00.49 bitrate= 400.9kbits/s dup=1 drop=0 speed=5.89x    frame= 5836 fps=141 q=32.0 size=   11908kB time=00:04:03.56 bitrate= 400.5kbits/s dup=1 drop=0 speed=5.89x    frame= 5891 fps=141 q=32.0 size=   12052kB time=00:04:05.86 bitrate= 401.6kbits/s dup=1 drop=0 speed=5.87x    frame= 5960 fps=141 q=32.0 size=   12116kB time=00:04:08.72 bitrate= 399.0kbits/s dup=1 drop=0 speed=5.87x    frame= 6004 fps=140 q=32.0 size=   12198kB time=00:04:10.60 bitrate= 398.8kbits/s dup=1 drop=0 speed=5.84x    frame= 6053 fps=139 q=32.0 size=   12284kB time=00:04:12.60 bitrate= 398.4kbits/s dup=1 drop=0 speed=5.82x    frame= 6104 fps=139 q=32.0 size=   12419kB time=00:04:14.74 bitrate= 399.4kbits/s dup=1 drop=0 speed= 5.8x    frame= 6170 fps=139 q=32.0 size=   12549kB time=00:04:17.47 bitrate= 399.3kbits/s dup=1 drop=0 speed= 5.8x    frame= 6224 fps=139 q=32.0 size=   12672kB time=00:04:19.73 bitrate= 399.7kbits/s dup=1 drop=0 speed=5.78x    frame= 6262 fps=138 q=32.0 size=   12777kB time=00:04:21.35 bitrate= 400.5kbits/s dup=1 drop=0 speed=5.75x    frame= 6316 fps=138 q=32.0 size=   12913kB time=00:04:23.57 bitrate= 401.3kbits/s dup=1 drop=0 speed=5.74x    frame= 6385 fps=138 q=32.0 size=   13008kB time=00:04:26.47 bitrate= 399.9kbits/s dup=1 drop=0 speed=5.74x    frame= 6472 fps=138 q=32.0 size=   13134kB time=00:04:30.10 bitrate= 398.3kbits/s dup=1 drop=0 speed=5.75x    frame= 6568 fps=138 q=32.0 size=   13235kB time=00:04:34.07 bitrate= 395.6kbits/s dup=1 drop=0 speed=5.78x    frame= 6659 fps=139 q=32.0 size=   13369kB time=00:04:37.91 bitrate= 394.1kbits/s dup=1 drop=0 speed= 5.8x    frame= 6733 fps=139 q=32.0 size=   13500kB time=00:04:40.98 bitrate= 393.6kbits/s dup=1 drop=0 speed= 5.8x    frame= 6812 fps=139 q=32.0 size=   13571kB time=00:04:44.26 bitrate= 391.1kbits/s dup=1 drop=0 speed= 5.8x    frame= 6876 fps=139 q=32.0 size=   13677kB time=00:04:46.95 bitrate= 390.4kbits/s dup=1 drop=0 speed= 5.8x    frame= 6943 fps=139 q=32.0 size=   13792kB time=00:04:49.77 bitrate= 389.9kbits/s dup=1 drop=0 speed= 5.8x    frame= 7018 fps=139 q=32.0 size=   13892kB time=00:04:52.88 bitrate= 388.6kbits/s dup=1 drop=0 speed= 5.8x    frame= 7062 fps=138 q=32.0 size=   13996kB time=00:04:54.67 bitrate= 389.1kbits/s dup=1 drop=0 speed=5.78x    frame= 7126 fps=138 q=32.0 size=   14117kB time=00:04:57.36 bitrate= 388.9kbits/s dup=1 drop=0 speed=5.78x    frame= 7185 fps=138 q=32.0 size=   14260kB time=00:04:59.84 bitrate= 389.6kbits/s dup=1 drop=0 speed=5.77x    frame= 7249 fps=138 q=32.0 size=   14382kB time=00:05:02.48 bitrate= 389.5kbits/s dup=1 drop=0 speed=5.76x    frame= 7359 fps=139 q=32.0 size=   14529kB time=00:05:07.09 bitrate= 387.6kbits/s dup=1 drop=0 speed=5.79x    frame= 7492 fps=140 q=32.0 size=   14619kB time=00:05:12.64 bitrate= 383.1kbits/s dup=1 drop=0 speed=5.84x    frame= 7556 fps=140 q=32.0 size=   14755kB time=00:05:15.32 bitrate= 383.3kbits/s dup=1 drop=0 speed=5.84x    frame= 7671 fps=141 q=32.0 size=   14855kB time=00:05:20.10 bitrate= 380.2kbits/s dup=1 drop=0 speed=5.87x    frame= 7782 fps=141 q=32.0 size=   14968kB time=00:05:24.75 bitrate= 377.6kbits/s dup=1 drop=0 speed= 5.9x    frame= 7875 fps=142 q=32.0 size=   15116kB time=00:05:28.59 bitrate= 376.8kbits/s dup=1 drop=0 speed=5.92x    frame= 7951 fps=142 q=32.0 size=   15262kB time=00:05:31.75 bitrate= 376.9kbits/s dup=1 drop=0 speed=5.92x    frame= 8034 fps=142 q=32.0 size=   15370kB time=00:05:35.25 bitrate= 375.6kbits/s dup=1 drop=0 speed=5.93x    frame= 8162 fps=143 q=32.0 size=   15470kB time=00:05:40.58 bitrate= 372.1kbits/s dup=1 drop=0 speed=5.97x    frame= 8318 fps=144 q=32.0 size=   15576kB time=00:05:47.07 bitrate= 367.6kbits/s dup=1 drop=0 speed=6.03x    frame= 8474 fps=146 q=32.0 size=   15684kB time=00:05:53.60 bitrate= 363.4kbits/s dup=1 drop=0 speed=6.09x    frame= 8583 fps=146 q=32.0 size=   15786kB time=00:05:58.16 bitrate= 361.0kbits/s dup=1 drop=0 speed=6.11x    frame= 8709 fps=147 q=32.0 size=   15907kB time=00:06:03.41 bitrate= 358.6kbits/s dup=1 drop=0 speed=6.15x    frame= 8847 fps=148 q=32.0 size=   16013kB time=00:06:09.13 bitrate= 355.4kbits/s dup=1 drop=0 speed=6.19x    frame= 8951 fps=149 q=32.0 size=   16104kB time=00:06:13.48 bitrate= 353.2kbits/s dup=1 drop=0 speed=6.21x    frame= 9057 fps=149 q=32.0 size=   16193kB time=00:06:17.92 bitrate= 351.0kbits/s dup=1 drop=0 speed=6.23x    frame= 9165 fps=150 q=32.0 size=   16330kB time=00:06:22.40 bitrate= 349.8kbits/s dup=1 drop=0 speed=6.25x    frame= 9263 fps=150 q=32.0 size=   16432kB time=00:06:26.49 bitrate= 348.3kbits/s dup=1 drop=0 speed=6.27x    frame= 9354 fps=150 q=32.0 size=   16520kB time=00:06:30.29 bitrate= 346.7kbits/s dup=1 drop=0 speed=6.27x    frame= 9457 fps=151 q=32.0 size=   16636kB time=00:06:34.56 bitrate= 345.4kbits/s dup=1 drop=0 speed=6.29x    frame= 9558 fps=151 q=32.0 size=   16747kB time=00:06:38.82 bitrate= 344.0kbits/s dup=1 drop=0 speed=6.31x    frame= 9646 fps=151 q=32.0 size=   16857kB time=00:06:42.49 bitrate= 343.1kbits/s dup=1 drop=0 speed=6.32x    frame= 9717 fps=151 q=32.0 size=   16920kB time=00:06:45.44 bitrate= 341.9kbits/s dup=1 drop=0 speed=6.31x    frame= 9803 fps=152 q=32.0 size=   17018kB time=00:06:49.02 bitrate= 340.8kbits/s dup=1 drop=0 speed=6.32x    frame= 9883 fps=152 q=32.0 size=   17095kB time=00:06:52.35 bitrate= 339.6kbits/s dup=1 drop=0 speed=6.32x    frame= 9941 fps=151 q=32.0 size=   17187kB time=00:06:54.78 bitrate= 339.4kbits/s dup=1 drop=0 speed=6.31x    frame=10002 fps=151 q=32.0 size=   17299kB time=00:06:57.34 bitrate= 339.6kbits/s dup=1 drop=0 speed= 6.3x    frame=10101 fps=151 q=32.0 size=   17420kB time=00:07:01.48 bitrate= 338.6kbits/s dup=1 drop=0 speed=6.32x    frame=10196 fps=152 q=32.0 size=   17536kB time=00:07:05.40 bitrate= 337.7kbits/s dup=1 drop=0 speed=6.33x    frame=10303 fps=152 q=32.0 size=   17704kB time=00:07:09.88 bitrate= 337.4kbits/s dup=1 drop=0 speed=6.35x    frame=10383 fps=152 q=32.0 size=   17841kB time=00:07:13.21 bitrate= 337.4kbits/s dup=1 drop=0 speed=6.35x    frame=10487 fps=153 q=32.0 size=   18032kB time=00:07:17.52 bitrate= 337.6kbits/s dup=1 drop=0 speed=6.37x    frame=10597 fps=153 q=32.0 size=   18157kB time=00:07:22.13 bitrate= 336.4kbits/s dup=1 drop=0 speed=6.39x    frame=10689 fps=153 q=32.0 size=   18330kB time=00:07:25.97 bitrate= 336.7kbits/s dup=1 drop=0 speed= 6.4x    frame=10786 fps=154 q=32.0 size=   18496kB time=00:07:30.02 bitrate= 336.7kbits/s dup=1 drop=0 speed=6.41x    frame=10893 fps=154 q=32.0 size=   18621kB time=00:07:34.46 bitrate= 335.7kbits/s dup=1 drop=0 speed=6.42x    frame=10975 fps=154 q=32.0 size=   18747kB time=00:07:37.92 bitrate= 335.4kbits/s dup=1 drop=0 speed=6.43x    frame=11056 fps=154 q=32.0 size=   18946kB time=00:07:41.29 bitrate= 336.5kbits/s dup=1 drop=0 speed=6.43x    frame=11164 fps=154 q=32.0 size=   19062kB time=00:07:45.77 bitrate= 335.3kbits/s dup=1 drop=0 speed=6.45x    frame=11237 fps=154 q=32.0 size=   19213kB time=00:07:48.84 bitrate= 335.7kbits/s dup=1 drop=0 speed=6.44x    frame=11308 fps=154 q=32.0 size=   19320kB time=00:07:51.78 bitrate= 335.5kbits/s dup=1 drop=0 speed=6.44x    frame=11367 fps=154 q=32.0 size=   19417kB time=00:07:54.26 bitrate= 335.4kbits/s dup=1 drop=0 speed=6.43x    frame=11434 fps=154 q=32.0 size=   19507kB time=00:07:57.03 bitrate= 335.0kbits/s dup=1 drop=0 speed=6.42x    frame=11519 fps=154 q=32.0 size=   19609kB time=00:08:00.61 bitrate= 334.2kbits/s dup=1 drop=0 speed=6.43x    frame=11628 fps=154 q=32.0 size=   19685kB time=00:08:05.14 bitrate= 332.4kbits/s dup=1 drop=0 speed=6.44x    frame=11739 fps=155 q=32.0 size=   19788kB time=00:08:09.75 bitrate= 331.0kbits/s dup=1 drop=0 speed=6.46x    frame=11832 fps=155 q=32.0 size=   19892kB time=00:08:13.63 bitrate= 330.1kbits/s dup=1 drop=0 speed=6.47x    frame=11923 fps=155 q=32.0 size=   19981kB time=00:08:17.43 bitrate= 329.1kbits/s dup=1 drop=0 speed=6.48x    frame=12015 fps=155 q=32.0 size=   20110kB time=00:08:21.27 bitrate= 328.7kbits/s dup=1 drop=0 speed=6.48x    frame=12104 fps=156 q=32.0 size=   20191kB time=00:08:25.02 bitrate= 327.5kbits/s dup=1 drop=0 speed=6.49x    frame=12173 fps=155 q=32.0 size=   20319kB time=00:08:27.88 bitrate= 327.7kbits/s dup=1 drop=0 speed=6.48x    frame=12239 fps=155 q=32.0 size=   20435kB time=00:08:30.61 bitrate= 327.9kbits/s dup=1 drop=0 speed=6.48x    frame=12323 fps=155 q=32.0 size=   20569kB time=00:08:34.11 bitrate= 327.7kbits/s dup=1 drop=0 speed=6.48x    frame=12441 fps=156 q=32.0 size=   20667kB time=00:08:39.06 bitrate= 326.2kbits/s dup=1 drop=0 speed= 6.5x    frame=12521 fps=156 q=32.0 size=   20793kB time=00:08:42.39 bitrate= 326.1kbits/s dup=1 drop=0 speed= 6.5x    frame=12578 fps=156 q=32.0 size=   20927kB time=00:08:44.77 bitrate= 326.7kbits/s dup=1 drop=0 speed=6.49x    frame=12668 fps=156 q=32.0 size=   21083kB time=00:08:48.53 bitrate= 326.8kbits/s dup=1 drop=0 speed= 6.5x    frame=12754 fps=156 q=32.0 size=   21217kB time=00:08:52.11 bitrate= 326.6kbits/s dup=1 drop=0 speed= 6.5x    frame=12817 fps=156 q=32.0 size=   21346kB time=00:08:54.76 bitrate= 327.0kbits/s dup=1 drop=0 speed=6.49x    frame=12867 fps=155 q=32.0 size=   21470kB time=00:08:56.81 bitrate= 327.6kbits/s dup=1 drop=0 speed=6.48x    frame=12937 fps=155 q=32.0 size=   21584kB time=00:08:59.75 bitrate= 327.6kbits/s dup=1 drop=0 speed=6.47x    frame=13003 fps=155 q=32.0 size=   21680kB time=00:09:02.48 bitrate= 327.4kbits/s dup=1 drop=0 speed=6.47x    frame=13065 fps=155 q=32.0 size=   21766kB time=00:09:05.08 bitrate= 327.1kbits/s dup=1 drop=0 speed=6.46x    frame=13145 fps=155 q=32.0 size=   21846kB time=00:09:08.41 bitrate= 326.3kbits/s dup=1 drop=0 speed=6.46x    frame=13203 fps=155 q=32.0 size=   21968kB time=00:09:10.80 bitrate= 326.7kbits/s dup=1 drop=0 speed=6.45x    frame=13295 fps=155 q=32.0 size=   22158kB time=00:09:14.64 bitrate= 327.3kbits/s dup=1 drop=0 speed=6.45x    frame=13392 fps=155 q=32.0 size=   22278kB time=00:09:18.69 bitrate= 326.6kbits/s dup=1 drop=0 speed=6.46x    frame=13455 fps=155 q=32.0 size=   22390kB time=00:09:21.34 bitrate= 326.8kbits/s dup=1 drop=0 speed=6.45x    frame=13532 fps=155 q=32.0 size=   22507kB time=00:09:24.54 bitrate= 326.6kbits/s dup=1 drop=0 speed=6.45x    frame=13585 fps=154 q=32.0 size=   22572kB time=00:09:26.76 bitrate= 326.3kbits/s dup=1 drop=0 speed=6.44x    frame=13637 fps=154 q=32.0 size=   22645kB time=00:09:28.93 bitrate= 326.1kbits/s dup=1 drop=0 speed=6.43x    frame=13704 fps=154 q=32.0 size=   22720kB time=00:09:31.71 bitrate= 325.5kbits/s dup=1 drop=0 speed=6.42x    frame=13796 fps=154 q=32.0 size=   22780kB time=00:09:35.55 bitrate= 324.2kbits/s dup=1 drop=0 speed=6.43x    frame=13865 fps=154 q=32.0 size=   22855kB time=00:09:38.45 bitrate= 323.7kbits/s dup=1 drop=0 speed=6.43x    frame=13918 fps=154 q=32.0 size=   22920kB time=00:09:40.67 bitrate= 323.3kbits/s dup=1 drop=0 speed=6.42x    frame=13973 fps=154 q=32.0 size=   23013kB time=00:09:42.97 bitrate= 323.4kbits/s dup=1 drop=0 speed=6.41x    frame=14039 fps=153 q=32.0 size=   23100kB time=00:09:45.70 bitrate= 323.1kbits/s dup=1 drop=0 speed= 6.4x    frame=14126 fps=154 q=32.0 size=   23183kB time=00:09:49.33 bitrate= 322.2kbits/s dup=1 drop=0 speed= 6.4x    frame=14220 fps=154 q=32.0 size=   23280kB time=00:09:53.21 bitrate= 321.5kbits/s dup=1 drop=0 speed=6.41x    frame=14324 fps=154 q=32.0 size=   23388kB time=00:09:57.61 bitrate= 320.6kbits/s dup=1 drop=0 speed=6.42x    frame=14452 fps=155 q=32.0 size=   23501kB time=00:10:02.94 bitrate= 319.3kbits/s dup=1 drop=0 speed=6.45x    frame=14560 fps=155 q=32.0 size=   23595kB time=00:10:07.42 bitrate= 318.2kbits/s dup=1 drop=0 speed=6.46x    frame=14682 fps=155 q=32.0 size=   23722kB time=00:10:12.54 bitrate= 317.2kbits/s dup=1 drop=0 speed=6.48x    frame=14773 fps=155 q=32.0 size=   23842kB time=00:10:16.29 bitrate= 316.9kbits/s dup=1 drop=0 speed=6.49x    frame=14886 fps=156 q=29.0 size=   23947kB time=00:10:21.03 bitrate= 315.9kbits/s dup=1 drop=0 speed= 6.5x    frame=15017 fps=156 q=32.0 size=   24065kB time=00:10:26.49 bitrate= 314.7kbits/s dup=1 drop=0 speed=6.52x    frame=15132 fps=157 q=32.0 size=   24231kB time=00:10:31.27 bitrate= 314.4kbits/s dup=1 drop=0 speed=6.54x    frame=15265 fps=157 q=32.0 size=   24332kB time=00:10:36.82 bitrate= 313.0kbits/s dup=1 drop=0 speed=6.56x    frame=15365 fps=157 q=32.0 size=   24449kB time=00:10:41.00 bitrate= 312.5kbits/s dup=1 drop=0 speed=6.57x    frame=15426 fps=157 q=32.0 size=   24546kB time=00:10:43.56 bitrate= 312.4kbits/s dup=1 drop=0 speed=6.56x    frame=15514 fps=157 q=32.0 size=   24702kB time=00:10:47.23 bitrate= 312.6kbits/s dup=1 drop=0 speed=6.56x    frame=15641 fps=158 q=32.0 size=   24820kB time=00:10:52.52 bitrate= 311.6kbits/s dup=1 drop=0 speed=6.58x    frame=15755 fps=158 q=32.0 size=   24969kB time=00:10:57.25 bitrate= 311.2kbits/s dup=1 drop=0 speed= 6.6x    frame=15828 fps=158 q=32.0 size=   25103kB time=00:11:00.33 bitrate= 311.4kbits/s dup=1 drop=0 speed= 6.6x    frame=15924 fps=158 q=32.0 size=   25225kB time=00:11:04.29 bitrate= 311.1kbits/s dup=1 drop=0 speed= 6.6x    frame=16030 fps=159 q=32.0 size=   25351kB time=00:11:08.77 bitrate= 310.5kbits/s dup=1 drop=0 speed=6.61x    frame=16131 fps=159 q=32.0 size=   25470kB time=00:11:12.96 bitrate= 310.0kbits/s dup=1 drop=0 speed=6.62x    frame=16225 fps=159 q=32.0 size=   25581kB time=00:11:16.88 bitrate= 309.6kbits/s dup=1 drop=0 speed=6.63x    frame=16329 fps=159 q=32.0 size=   25720kB time=00:11:21.19 bitrate= 309.3kbits/s dup=1 drop=0 speed=6.64x    frame=16384 fps=159 q=32.0 size=   25869kB time=00:11:23.49 bitrate= 310.0kbits/s dup=1 drop=0 speed=6.63x    frame=16472 fps=159 q=32.0 size=   25960kB time=00:11:27.16 bitrate= 309.5kbits/s dup=1 drop=0 speed=6.63x    frame=16594 fps=159 q=32.0 size=   26045kB time=00:11:32.28 bitrate= 308.2kbits/s dup=1 drop=0 speed=6.65x    frame=16682 fps=159 q=32.0 size=   26195kB time=00:11:35.91 bitrate= 308.4kbits/s dup=1 drop=0 speed=6.65x    frame=16760 fps=159 q=32.0 size=   26274kB time=00:11:39.20 bitrate= 307.8kbits/s dup=1 drop=0 speed=6.65x    frame=16834 fps=159 q=32.0 size=   26352kB time=00:11:42.27 bitrate= 307.4kbits/s dup=1 drop=0 speed=6.64x    frame=16929 fps=159 q=32.0 size=   26498kB time=00:11:46.24 bitrate= 307.4kbits/s dup=1 drop=0 speed=6.65x    frame=17022 fps=160 q=32.0 size=   26606kB time=00:11:50.12 bitrate= 306.9kbits/s dup=1 drop=0 speed=6.65x    frame=17080 fps=159 q=32.0 size=   26704kB time=00:11:52.55 bitrate= 307.0kbits/s dup=1 drop=0 speed=6.65x    frame=17140 fps=159 q=32.0 size=   26814kB time=00:11:55.03 bitrate= 307.2kbits/s dup=1 drop=0 speed=6.64x    frame=17229 fps=159 q=32.0 size=   26953kB time=00:11:58.74 bitrate= 307.2kbits/s dup=1 drop=0 speed=6.64x    frame=17336 fps=159 q=32.0 size=   27066kB time=00:12:03.22 bitrate= 306.6kbits/s dup=1 drop=0 speed=6.65x    frame=17439 fps=160 q=32.0 size=   27204kB time=00:12:07.53 bitrate= 306.3kbits/s dup=1 drop=0 speed=6.66x    frame=17525 fps=160 q=32.0 size=   27311kB time=00:12:11.07 bitrate= 306.0kbits/s dup=1 drop=0 speed=6.66x    frame=17592 fps=160 q=32.0 size=   27428kB time=00:12:13.88 bitrate= 306.2kbits/s dup=1 drop=0 speed=6.66x    frame=17680 fps=160 q=32.0 size=   27558kB time=00:12:17.55 bitrate= 306.1kbits/s dup=1 drop=0 speed=6.66x    frame=17747 fps=160 q=32.0 size=   27725kB time=00:12:20.33 bitrate= 306.8kbits/s dup=1 drop=0 speed=6.65x    frame=17888 fps=160 q=29.0 size=   27816kB time=00:12:26.21 bitrate= 305.4kbits/s dup=1 drop=0 speed=6.68x    frame=17958 fps=160 q=32.0 size=   27964kB time=00:12:29.16 bitrate= 305.8kbits/s dup=1 drop=0 speed=6.67x    frame=18070 fps=160 q=32.0 size=   28113kB time=00:12:33.81 bitrate= 305.5kbits/s dup=1 drop=0 speed=6.69x    frame=18164 fps=160 q=32.0 size=   28254kB time=00:12:37.73 bitrate= 305.5kbits/s dup=1 drop=0 speed=6.69x    frame=18199 fps=160 q=32.0 size=   28383kB time=00:12:39.23 bitrate= 306.2kbits/s dup=1 drop=0 speed=6.67x    frame=18255 fps=160 q=32.0 size=   28518kB time=00:12:41.53 bitrate= 306.8kbits/s dup=1 drop=0 speed=6.66x    frame=18342 fps=160 q=32.0 size=   28638kB time=00:12:45.16 bitrate= 306.6kbits/s dup=1 drop=0 speed=6.67x    frame=18382 fps=159 q=32.0 size=   28765kB time=00:12:46.82 bitrate= 307.3kbits/s dup=1 drop=0 speed=6.65x    frame=18423 fps=159 q=32.0 size=   28880kB time=00:12:48.53 bitrate= 307.8kbits/s dup=1 drop=0 speed=6.63x    frame=18464 fps=159 q=32.0 size=   28983kB time=00:12:50.24 bitrate= 308.3kbits/s dup=1 drop=0 speed=6.62x    frame=18549 fps=159 q=32.0 size=   29099kB time=00:12:53.82 bitrate= 308.1kbits/s dup=1 drop=0 speed=6.62x    frame=18682 fps=159 q=32.0 size=   29203kB time=00:12:59.37 bitrate= 306.9kbits/s dup=1 drop=0 speed=6.64x    frame=18776 fps=159 q=32.0 size=   29325kB time=00:13:03.25 bitrate= 306.7kbits/s dup=1 drop=0 speed=6.64x    frame=18873 fps=159 q=32.0 size=   29487kB time=00:13:07.30 bitrate= 306.8kbits/s dup=1 drop=0 speed=6.65x    frame=18964 fps=159 q=32.0 size=   29581kB time=00:13:11.10 bitrate= 306.3kbits/s dup=1 drop=0 speed=6.65x    frame=19120 fps=160 q=32.0 size=   29666kB time=00:13:17.63 bitrate= 304.7kbits/s dup=1 drop=0 speed=6.68x    frame=19192 fps=160 q=32.0 size=   29784kB time=00:13:20.61 bitrate= 304.7kbits/s dup=1 drop=0 speed=6.68x    frame=19276 fps=160 q=32.0 size=   29856kB time=00:13:24.11 bitrate= 304.2kbits/s dup=1 drop=0 speed=6.68x    frame=19319 fps=160 q=29.0 size=   29982kB time=00:13:25.91 bitrate= 304.8kbits/s dup=1 drop=0 speed=6.66x    frame=19410 fps=160 q=32.0 size=   30148kB time=00:13:29.70 bitrate= 305.0kbits/s dup=1 drop=0 speed=6.67x    frame=19464 fps=160 q=32.0 size=   30272kB time=00:13:31.96 bitrate= 305.4kbits/s dup=1 drop=0 speed=6.66x    frame=19516 fps=159 q=32.0 size=   30379kB time=00:13:34.14 bitrate= 305.7kbits/s dup=1 drop=0 speed=6.65x    frame=19589 fps=159 q=32.0 size=   30482kB time=00:13:37.21 bitrate= 305.6kbits/s dup=1 drop=0 speed=6.65x    frame=19673 fps=159 q=32.0 size=   30573kB time=00:13:40.67 bitrate= 305.2kbits/s dup=1 drop=0 speed=6.65x    frame=19738 fps=159 q=32.0 size=   30651kB time=00:13:43.40 bitrate= 304.9kbits/s dup=1 drop=0 speed=6.64x    frame=19799 fps=159 q=32.0 size=   30731kB time=00:13:45.92 bitrate= 304.8kbits/s dup=1 drop=0 speed=6.63x    frame=19859 fps=159 q=32.0 size=   30813kB time=00:13:48.43 bitrate= 304.7kbits/s dup=1 drop=0 speed=6.63x    frame=19941 fps=159 q=32.0 size=   30912kB time=00:13:51.85 bitrate= 304.4kbits/s dup=1 drop=0 speed=6.63x    frame=20038 fps=159 q=32.0 size=   31024kB time=00:13:55.90 bitrate= 304.0kbits/s dup=1 drop=0 speed=6.63x    frame=20136 fps=159 q=32.0 size=   31157kB time=00:14:00.00 bitrate= 303.9kbits/s dup=1 drop=0 speed=6.64x    frame=20261 fps=160 q=32.0 size=   31268kB time=00:14:05.20 bitrate= 303.1kbits/s dup=1 drop=0 speed=6.65x    frame=20376 fps=160 q=32.0 size=   31367kB time=00:14:09.98 bitrate= 302.3kbits/s dup=1 drop=0 speed=6.67x    frame=20502 fps=160 q=32.0 size=   31480kB time=00:14:15.27 bitrate= 301.5kbits/s dup=1 drop=0 speed=6.68x    frame=20603 fps=160 q=32.0 size=   31628kB time=00:14:19.49 bitrate= 301.5kbits/s dup=1 drop=0 speed=6.69x    frame=20666 fps=160 q=32.0 size=   31762kB time=00:14:22.10 bitrate= 301.8kbits/s dup=1 drop=0 speed=6.68x    frame=20731 fps=160 q=32.0 size=   31874kB time=00:14:24.83 bitrate= 301.9kbits/s dup=1 drop=0 speed=6.68x    frame=20838 fps=160 q=32.0 size=   32010kB time=00:14:29.27 bitrate= 301.7kbits/s dup=1 drop=0 speed=6.68x    frame=20933 fps=160 q=32.0 size=   32145kB time=00:14:33.23 bitrate= 301.6kbits/s dup=1 drop=0 speed=6.69x    frame=20994 fps=160 q=32.0 size=   32332kB time=00:14:35.79 bitrate= 302.4kbits/s dup=1 drop=0 speed=6.68x    frame=21070 fps=160 q=32.0 size=   32451kB time=00:14:38.95 bitrate= 302.4kbits/s dup=1 drop=0 speed=6.68x    frame=21147 fps=160 q=32.0 size=   32565kB time=00:14:42.15 bitrate= 302.4kbits/s dup=1 drop=0 speed=6.68x    frame=21235 fps=160 q=32.0 size=   32707kB time=00:14:45.82 bitrate= 302.5kbits/s dup=1 drop=0 speed=6.68x    frame=21324 fps=160 q=32.0 size=   32819kB time=00:14:49.53 bitrate= 302.2kbits/s dup=1 drop=0 speed=6.68x    frame=21432 fps=160 q=32.0 size=   32914kB time=00:14:54.05 bitrate= 301.6kbits/s dup=1 drop=0 speed=6.69x    frame=21531 fps=161 q=32.0 size=   33029kB time=00:14:58.15 bitrate= 301.3kbits/s dup=1 drop=0 speed= 6.7x    frame=21601 fps=160 q=32.0 size=   33171kB time=00:15:01.09 bitrate= 301.6kbits/s dup=1 drop=0 speed=6.69x    frame=21678 fps=160 q=32.0 size=   33294kB time=00:15:04.29 bitrate= 301.6kbits/s dup=1 drop=0 speed=6.69x    frame=21748 fps=160 q=32.0 size=   33400kB time=00:15:07.24 bitrate= 301.6kbits/s dup=1 drop=0 speed=6.69x    frame=21843 fps=160 q=32.0 size=   33532kB time=00:15:11.16 bitrate= 301.5kbits/s dup=1 drop=0 speed=6.69x    frame=21927 fps=160 q=32.0 size=   33674kB time=00:15:14.66 bitrate= 301.6kbits/s dup=1 drop=0 speed=6.69x    frame=22065 fps=161 q=32.0 size=   33803kB time=00:15:20.42 bitrate= 300.9kbits/s dup=1 drop=0 speed=6.71x    frame=22213 fps=161 q=32.0 size=   33933kB time=00:15:26.61 bitrate= 300.0kbits/s dup=1 drop=0 speed=6.73x    frame=22333 fps=162 q=32.0 size=   34068kB time=00:15:31.64 bitrate= 299.6kbits/s dup=1 drop=0 speed=6.74x    frame=22436 fps=162 q=32.0 size=   34196kB time=00:15:35.91 bitrate= 299.3kbits/s dup=1 drop=0 speed=6.75x    frame=22531 fps=162 q=32.0 size=   34341kB time=00:15:39.88 bitrate= 299.3kbits/s dup=1 drop=0 speed=6.75x    frame=22636 fps=162 q=32.0 size=   34511kB time=00:15:44.27 bitrate= 299.4kbits/s dup=1 drop=0 speed=6.76x    frame=22743 fps=162 q=32.0 size=   34610kB time=00:15:48.75 bitrate= 298.8kbits/s dup=1 drop=0 speed=6.77x    frame=22806 fps=162 q=32.0 size=   34705kB time=00:15:51.36 bitrate= 298.8kbits/s dup=1 drop=0 speed=6.76x    frame=22869 fps=162 q=32.0 size=   34791kB time=00:15:54.00 bitrate= 298.8kbits/s dup=1 drop=0 speed=6.76x    frame=22938 fps=162 q=32.0 size=   34944kB time=00:15:56.86 bitrate= 299.2kbits/s dup=1 drop=0 speed=6.75x    frame=23008 fps=162 q=32.0 size=   35085kB time=00:15:59.76 bitrate= 299.5kbits/s dup=1 drop=0 speed=6.75x    frame=23072 fps=162 q=32.0 size=   35219kB time=00:16:02.45 bitrate= 299.8kbits/s dup=1 drop=0 speed=6.74x    frame=23156 fps=162 q=32.0 size=   35333kB time=00:16:05.99 bitrate= 299.6kbits/s dup=1 drop=0 speed=6.74x    frame=23214 fps=161 q=32.0 size=   35401kB time=00:16:08.38 bitrate= 299.5kbits/s dup=1 drop=0 speed=6.74x    frame=23276 fps=161 q=32.0 size=   35458kB time=00:16:10.94 bitrate= 299.2kbits/s dup=1 drop=0 speed=6.73x    frame=23334 fps=161 q=32.0 size=   35569kB time=00:16:13.37 bitrate= 299.4kbits/s dup=1 drop=0 speed=6.72x    frame=23398 fps=161 q=32.0 size=   35669kB time=00:16:16.06 bitrate= 299.4kbits/s dup=1 drop=0 speed=6.72x    frame=23472 fps=161 q=32.0 size=   35791kB time=00:16:19.13 bitrate= 299.5kbits/s dup=1 drop=0 speed=6.72x    frame=23558 fps=161 q=32.0 size=   35893kB time=00:16:22.72 bitrate= 299.2kbits/s dup=1 drop=0 speed=6.72x    frame=23641 fps=161 q=32.0 size=   35993kB time=00:16:26.17 bitrate= 299.0kbits/s dup=1 drop=0 speed=6.72x    frame=23720 fps=161 q=32.0 size=   36099kB time=00:16:29.46 bitrate= 298.9kbits/s dup=1 drop=0 speed=6.72x    frame=23806 fps=161 q=32.0 size=   36206kB time=00:16:33.08 bitrate= 298.7kbits/s dup=1 drop=0 speed=6.72x    frame=23885 fps=161 q=32.0 size=   36364kB time=00:16:36.37 bitrate= 299.0kbits/s dup=1 drop=0 speed=6.72x    frame=24035 fps=161 q=32.0 size=   36461kB time=00:16:42.60 bitrate= 297.9kbits/s dup=1 drop=0 speed=6.74x    frame=24182 fps=162 q=32.0 size=   36566kB time=00:16:48.74 bitrate= 296.9kbits/s dup=1 drop=0 speed=6.75x    frame=24255 fps=162 q=32.0 size=   36649kB time=00:16:51.77 bitrate= 296.7kbits/s dup=1 drop=0 speed=6.75x    frame=24312 fps=162 q=32.0 size=   36771kB time=00:16:54.16 bitrate= 297.0kbits/s dup=1 drop=0 speed=6.74x    frame=24364 fps=161 q=32.0 size=   36906kB time=00:16:56.34 bitrate= 297.5kbits/s dup=1 drop=0 speed=6.73x    frame=24491 fps=162 q=32.0 size=   37034kB time=00:17:01.63 bitrate= 297.0kbits/s dup=1 drop=0 speed=6.75x    frame=24586 fps=162 q=32.0 size=   37142kB time=00:17:05.60 bitrate= 296.7kbits/s dup=1 drop=0 speed=6.75x    frame=24655 fps=162 q=32.0 size=   37234kB time=00:17:08.45 bitrate= 296.6kbits/s dup=1 drop=0 speed=6.75x    frame=24789 fps=162 q=32.0 size=   37338kB time=00:17:14.04 bitrate= 295.8kbits/s dup=1 drop=0 speed=6.76x    frame=24921 fps=162 q=32.0 size=   37437kB time=00:17:19.59 bitrate= 295.0kbits/s dup=1 drop=0 speed=6.77x    frame=25007 fps=162 q=32.0 size=   37529kB time=00:17:23.17 bitrate= 294.7kbits/s dup=1 drop=0 speed=6.77x    frame=25209 fps=163 q=32.0 size=   37630kB time=00:17:31.58 bitrate= 293.1kbits/s dup=1 drop=0 speed=6.81x    frame=25344 fps=164 q=32.0 size=   37730kB time=00:17:37.21 bitrate= 292.4kbits/s dup=1 drop=0 speed=6.82x    frame=25503 fps=164 q=32.0 size=   37846kB time=00:17:43.83 bitrate= 291.4kbits/s dup=1 drop=0 speed=6.84x    frame=25610 fps=164 q=32.0 size=   37949kB time=00:17:48.31 bitrate= 291.0kbits/s dup=1 drop=0 speed=6.85x    frame=25693 fps=164 q=32.0 size=   38064kB time=00:17:51.76 bitrate= 290.9kbits/s dup=1 drop=0 speed=6.85x    frame=25806 fps=164 q=32.0 size=   38153kB time=00:17:56.50 bitrate= 290.3kbits/s dup=1 drop=0 speed=6.86x    frame=25959 fps=165 q=32.0 size=   38239kB time=00:18:02.85 bitrate= 289.3kbits/s dup=1 drop=0 speed=6.88x    frame=26080 fps=165 q=32.0 size=   38322kB time=00:18:07.93 bitrate= 288.6kbits/s dup=1 drop=0 speed=6.89x    frame=26175 fps=165 q=32.0 size=   38419kB time=00:18:11.86 bitrate= 288.3kbits/s dup=1 drop=0 speed=6.89x    frame=26254 fps=165 q=32.0 size=   38547kB time=00:18:15.14 bitrate= 288.3kbits/s dup=1 drop=0 speed=6.89x    frame=26345 fps=165 q=32.0 size=   38636kB time=00:18:18.94 bitrate= 288.0kbits/s dup=1 drop=0 speed=6.89x    frame=26425 fps=165 q=32.0 size=   38703kB time=00:18:22.31 bitrate= 287.6kbits/s dup=1 drop=0 speed=6.89x    frame=26501 fps=165 q=32.0 size=   38814kB time=00:18:25.47 bitrate= 287.6kbits/s dup=1 drop=0 speed=6.89x    frame=26586 fps=165 q=32.0 size=   38910kB time=00:18:29.05 bitrate= 287.4kbits/s dup=1 drop=0 speed=6.89x    frame=26694 fps=165 q=32.0 size=   38986kB time=00:18:33.53 bitrate= 286.8kbits/s dup=1 drop=0 speed=6.89x    frame=26769 fps=165 q=32.0 size=   39073kB time=00:18:36.65 bitrate= 286.6kbits/s dup=1 drop=0 speed=6.89x    frame=26876 fps=165 q=32.0 size=   39142kB time=00:18:41.13 bitrate= 286.0kbits/s dup=1 drop=0 speed= 6.9x    frame=26940 fps=165 q=32.0 size=   39258kB time=00:18:43.81 bitrate= 286.2kbits/s dup=1 drop=0 speed=6.89x    frame=27050 fps=165 q=32.0 size=   39345kB time=00:18:48.34 bitrate= 285.6kbits/s dup=1 drop=0 speed= 6.9x    frame=27195 fps=166 q=32.0 size=   39433kB time=00:18:54.40 bitrate= 284.8kbits/s dup=1 drop=0 speed=6.91x    frame=27293 fps=166 q=32.0 size=   39521kB time=00:18:58.49 bitrate= 284.4kbits/s dup=1 drop=0 speed=6.92x    frame=27429 fps=166 q=32.0 size=   39614kB time=00:19:04.17 bitrate= 283.6kbits/s dup=1 drop=0 speed=6.93x    frame=27592 fps=167 q=32.0 size=   39723kB time=00:19:10.95 bitrate= 282.7kbits/s dup=1 drop=0 speed=6.95x    frame=27696 fps=167 q=32.0 size=   39820kB time=00:19:15.30 bitrate= 282.4kbits/s dup=1 drop=0 speed=6.95x    frame=27775 fps=167 q=32.0 size=   39895kB time=00:19:18.59 bitrate= 282.1kbits/s dup=1 drop=0 speed=6.95x    frame=27833 fps=167 q=32.0 size=   40003kB time=00:19:21.06 bitrate= 282.2kbits/s dup=1 drop=0 speed=6.95x    frame=27922 fps=167 q=32.0 size=   40135kB time=00:19:24.73 bitrate= 282.3kbits/s dup=1 drop=0 speed=6.95x    frame=28011 fps=167 q=32.0 size=   40262kB time=00:19:28.44 bitrate= 282.3kbits/s dup=1 drop=0 speed=6.95x    frame=28157 fps=167 q=32.0 size=   40378kB time=00:19:34.55 bitrate= 281.6kbits/s dup=1 drop=0 speed=6.97x    frame=28323 fps=167 q=32.0 size=   40487kB time=00:19:41.46 bitrate= 280.7kbits/s dup=1 drop=0 speed=6.99x    frame=28440 fps=168 q=32.0 size=   40663kB time=00:19:46.32 bitrate= 280.8kbits/s dup=1 drop=0 speed=6.99x    frame=28527 fps=168 q=32.0 size=   40785kB time=00:19:49.95 bitrate= 280.8kbits/s dup=1 drop=0 speed=6.99x    frame=28605 fps=168 q=32.0 size=   40916kB time=00:19:53.23 bitrate= 280.9kbits/s dup=1 drop=0 speed=6.99x    frame=28691 fps=168 q=32.0 size=   41021kB time=00:19:56.82 bitrate= 280.8kbits/s dup=1 drop=0 speed=6.99x    frame=28787 fps=168 q=32.0 size=   41140kB time=00:20:00.83 bitrate= 280.7kbits/s dup=1 drop=0 speed=   7x    frame=28904 fps=168 q=32.0 size=   41255kB time=00:20:05.69 bitrate= 280.3kbits/s dup=1 drop=0 speed=   7x    frame=29035 fps=168 q=32.0 size=   41359kB time=00:20:11.15 bitrate= 279.7kbits/s dup=1 drop=0 speed=7.02x    frame=29143 fps=168 q=32.0 size=   41458kB time=00:20:15.68 bitrate= 279.4kbits/s dup=1 drop=0 speed=7.02x    frame=29198 fps=168 q=32.0 size=   41540kB time=00:20:17.94 bitrate= 279.4kbits/s dup=1 drop=0 speed=7.01x    frame=29268 fps=168 q=32.0 size=   41628kB time=00:20:20.88 bitrate= 279.3kbits/s dup=1 drop=0 speed=7.01x    frame=29363 fps=168 q=32.0 size=   41715kB time=00:20:24.85 bitrate= 279.0kbits/s dup=1 drop=0 speed=7.01x    frame=29490 fps=168 q=32.0 size=   41833kB time=00:20:30.18 bitrate= 278.6kbits/s dup=1 drop=0 speed=7.02x    frame=29630 fps=169 q=32.0 size=   41924kB time=00:20:35.99 bitrate= 277.9kbits/s dup=1 drop=0 speed=7.04x    frame=29749 fps=169 q=32.0 size=   42040kB time=00:20:40.93 bitrate= 277.5kbits/s dup=1 drop=0 speed=7.04x    frame=29832 fps=169 q=32.0 size=   42105kB time=00:20:44.39 bitrate= 277.2kbits/s dup=1 drop=0 speed=7.04x    frame=29963 fps=169 q=32.0 size=   42195kB time=00:20:49.85 bitrate= 276.6kbits/s dup=1 drop=0 speed=7.06x    frame=30078 fps=169 q=32.0 size=   42283kB time=00:20:54.67 bitrate= 276.1kbits/s dup=1 drop=0 speed=7.06x    frame=30190 fps=169 q=32.0 size=   42389kB time=00:20:59.37 bitrate= 275.7kbits/s dup=1 drop=0 speed=7.07x    frame=30287 fps=170 q=32.0 size=   42502kB time=00:21:03.42 bitrate= 275.6kbits/s dup=1 drop=0 speed=7.07x    frame=30371 fps=170 q=32.0 size=   42593kB time=00:21:06.88 bitrate= 275.4kbits/s dup=1 drop=0 speed=7.07x    frame=30438 fps=169 q=32.0 size=   42688kB time=00:21:09.65 bitrate= 275.4kbits/s dup=1 drop=0 speed=7.07x    frame=30557 fps=170 q=32.0 size=   42787kB time=00:21:14.64 bitrate= 275.0kbits/s dup=1 drop=0 speed=7.07x    frame=30686 fps=170 q=32.0 size=   42874kB time=00:21:20.02 bitrate= 274.4kbits/s dup=1 drop=0 speed=7.08x    frame=30826 fps=170 q=32.0 size=   42954kB time=00:21:25.86 bitrate= 273.6kbits/s dup=1 drop=0 speed= 7.1x    frame=30895 fps=170 q=32.0 size=   43066kB time=00:21:28.76 bitrate= 273.7kbits/s dup=1 drop=0 speed=7.09x    frame=30954 fps=170 q=32.0 size=   43154kB time=00:21:31.20 bitrate= 273.8kbits/s dup=1 drop=0 speed=7.09x    frame=31016 fps=170 q=32.0 size=   43251kB time=00:21:33.80 bitrate= 273.9kbits/s dup=1 drop=0 speed=7.08x    frame=31084 fps=170 q=32.0 size=   43371kB time=00:21:36.61 bitrate= 274.0kbits/s dup=1 drop=0 speed=7.08x    frame=31151 fps=170 q=32.0 size=   43476kB time=00:21:39.39 bitrate= 274.1kbits/s dup=1 drop=0 speed=7.07x    frame=31216 fps=169 q=32.0 size=   43639kB time=00:21:42.12 bitrate= 274.5kbits/s dup=1 drop=0 speed=7.07x    frame=31277 fps=169 q=32.0 size=   43783kB time=00:21:44.68 bitrate= 274.9kbits/s dup=1 drop=0 speed=7.06x    frame=31343 fps=169 q=32.0 size=   43927kB time=00:21:47.41 bitrate= 275.2kbits/s dup=1 drop=0 speed=7.06x    frame=31408 fps=169 q=32.0 size=   44121kB time=00:21:50.14 bitrate= 275.9kbits/s dup=1 drop=0 speed=7.05x    frame=31457 fps=169 q=32.0 size=   44285kB time=00:21:52.19 bitrate= 276.5kbits/s dup=1 drop=0 speed=7.05x    frame=31515 fps=169 q=32.0 size=   44456kB time=00:21:54.58 bitrate= 277.0kbits/s dup=1 drop=0 speed=7.04x    frame=31595 fps=169 q=32.0 size=   44592kB time=00:21:57.95 bitrate= 277.2kbits/s dup=1 drop=0 speed=7.04x    frame=31693 fps=169 q=32.0 size=   44702kB time=00:22:02.00 bitrate= 277.0kbits/s dup=1 drop=0 speed=7.04x    frame=31771 fps=169 q=32.0 size=   44835kB time=00:22:05.29 bitrate= 277.1kbits/s dup=1 drop=0 speed=7.04x    frame=31846 fps=169 q=32.0 size=   44962kB time=00:22:08.40 bitrate= 277.3kbits/s dup=1 drop=0 speed=7.04x    frame=31895 fps=168 q=32.0 size=   45096kB time=00:22:10.45 bitrate= 277.7kbits/s dup=1 drop=0 speed=7.03x    frame=31971 fps=168 q=32.0 size=   45223kB time=00:22:13.61 bitrate= 277.8kbits/s dup=1 drop=0 speed=7.03x    frame=32052 fps=168 q=32.0 size=   45339kB time=00:22:16.98 bitrate= 277.8kbits/s dup=1 drop=0 speed=7.02x    frame=32149 fps=168 q=32.0 size=   45477kB time=00:22:21.03 bitrate= 277.8kbits/s dup=1 drop=0 speed=7.03x    frame=32223 fps=168 q=32.0 size=   45585kB time=00:22:24.15 bitrate= 277.8kbits/s dup=1 drop=0 speed=7.03x    frame=32266 fps=168 q=32.0 size=   45710kB time=00:22:25.89 bitrate= 278.2kbits/s dup=1 drop=0 speed=7.02x    frame=32308 fps=168 q=32.0 size=   45830kB time=00:22:27.69 bitrate= 278.6kbits/s dup=1 drop=0 speed=7.01x    frame=32349 fps=168 q=32.0 size=   45952kB time=00:22:29.35 bitrate= 279.0kbits/s dup=1 drop=0 speed=   7x    frame=32410 fps=168 q=32.0 size=   46066kB time=00:22:31.91 bitrate= 279.1kbits/s dup=1 drop=0 speed=6.99x    frame=32461 fps=167 q=32.0 size=   46162kB time=00:22:34.04 bitrate= 279.3kbits/s dup=1 drop=0 speed=6.98x    frame=32521 fps=167 q=32.0 size=   46250kB time=00:22:36.56 bitrate= 279.3kbits/s dup=1 drop=0 speed=6.98x    frame=32599 fps=167 q=32.0 size=   46350kB time=00:22:39.80 bitrate= 279.2kbits/s dup=1 drop=0 speed=6.98x    frame=32659 fps=167 q=32.0 size=   46441kB time=00:22:42.32 bitrate= 279.3kbits/s dup=1 drop=0 speed=6.97x    frame=32715 fps=167 q=32.0 size=   46559kB time=00:22:44.63 bitrate= 279.5kbits/s dup=1 drop=0 speed=6.96x    frame=32778 fps=167 q=32.0 size=   46677kB time=00:22:47.27 bitrate= 279.7kbits/s dup=1 drop=0 speed=6.96x    frame=32843 fps=167 q=32.0 size=   46771kB time=00:22:50.00 bitrate= 279.7kbits/s dup=1 drop=0 speed=6.96x    frame=32927 fps=167 q=32.0 size=   46855kB time=00:22:53.50 bitrate= 279.5kbits/s dup=1 drop=0 speed=6.96x    frame=33075 fps=167 q=32.0 size=   46955kB time=00:22:59.64 bitrate= 278.8kbits/s dup=1 drop=0 speed=6.97x    frame=33165 fps=167 q=32.0 size=   47047kB time=00:23:03.40 bitrate= 278.6kbits/s dup=1 drop=0 speed=6.97x    frame=33245 fps=167 q=32.0 size=   47152kB time=00:23:06.73 bitrate= 278.5kbits/s dup=1 drop=0 speed=6.97x    frame=33301 fps=167 q=32.0 size=   47253kB time=00:23:09.07 bitrate= 278.7kbits/s dup=1 drop=0 speed=6.96x    frame=33367 fps=167 q=32.0 size=   47366kB time=00:23:11.85 bitrate= 278.8kbits/s dup=1 drop=0 speed=6.96x    frame=33447 fps=167 q=32.0 size=   47491kB time=00:23:15.17 bitrate= 278.9kbits/s dup=1 drop=0 speed=6.96x    frame=33532 fps=167 q=32.0 size=   47622kB time=00:23:18.72 bitrate= 278.9kbits/s dup=1 drop=0 speed=6.96x    frame=33644 fps=167 q=32.0 size=   47753kB time=00:23:23.41 bitrate= 278.7kbits/s dup=1 drop=0 speed=6.96x    frame=33789 fps=167 q=32.0 size=   47848kB time=00:23:29.43 bitrate= 278.1kbits/s dup=1 drop=0 speed=6.98x    frame=33913 fps=167 q=32.0 size=   47951kB time=00:23:34.59 bitrate= 277.7kbits/s dup=1 drop=0 speed=6.98x    frame=34018 fps=168 q=32.0 size=   48020kB time=00:23:38.98 bitrate= 277.2kbits/s dup=1 drop=0 speed=6.99x    frame=34090 fps=167 q=29.0 size=   48096kB time=00:23:42.01 bitrate= 277.1kbits/s dup=1 drop=0 speed=6.99x    frame=34161 fps=167 q=32.0 size=   48183kB time=00:23:44.96 bitrate= 277.0kbits/s dup=1 drop=0 speed=6.98x    frame=34242 fps=167 q=32.0 size=   48264kB time=00:23:48.33 bitrate= 276.8kbits/s dup=1 drop=0 speed=6.98x    frame=34329 fps=167 q=32.0 size=   48348kB time=00:23:51.95 bitrate= 276.6kbits/s dup=1 drop=0 speed=6.98x    frame=34390 fps=167 q=32.0 size=   48455kB time=00:23:54.51 bitrate= 276.7kbits/s dup=1 drop=0 speed=6.98x    frame=34445 fps=167 q=29.0 size=   48571kB time=00:23:56.82 bitrate= 276.9kbits/s dup=1 drop=0 speed=6.97x    frame=34552 fps=167 q=32.0 size=   48744kB time=00:24:01.25 bitrate= 277.1kbits/s dup=1 drop=0 speed=6.98x    frame=34674 fps=167 q=32.0 size=   48821kB time=00:24:06.37 bitrate= 276.5kbits/s dup=1 drop=0 speed=6.99x    frame=34760 fps=167 q=32.0 size=   48922kB time=00:24:09.92 bitrate= 276.4kbits/s dup=1 drop=0 speed=6.99x    frame=34836 fps=167 q=32.0 size=   49013kB time=00:24:13.12 bitrate= 276.3kbits/s dup=1 drop=0 speed=6.98x    frame=34987 fps=168 q=32.0 size=   49122kB time=00:24:19.43 bitrate= 275.7kbits/s dup=1 drop=0 speed=   7x    frame=35182 fps=168 q=32.0 size=   49259kB time=00:24:27.54 bitrate= 275.0kbits/s dup=1 drop=0 speed=7.02x    [mp4 @ 0x3025f20] Starting second pass: moving the moov atom to the beginning of the file
frame=35220 fps=168 q=-1.0 Lsize=   50129kB time=00:24:28.95 bitrate= 279.6kbits/s dup=1 drop=0 speed=7.02x    
video:39877kB audio:9417kB subtitle:0kB other streams:0kB global headers:0kB muxing overhead: 1.694386%
[libx264 @ 0x30b0540] frame I:358   Avg QP:21.08  size: 16194
[libx264 @ 0x30b0540] frame P:11519 Avg QP:24.40  size:  2366
[libx264 @ 0x30b0540] frame B:23343 Avg QP:28.94  size:   333
[libx264 @ 0x30b0540] consecutive B-frames:  3.3%  7.8% 51.8% 37.1%
[libx264 @ 0x30b0540] mb I  I16..4: 24.1% 55.7% 20.2%
[libx264 @ 0x30b0540] mb P  I16..4:  3.6%  3.5%  1.2%  P16..4: 25.7%  3.9%  3.2%  0.1%  0.0%    skip:58.6%
[libx264 @ 0x30b0540] mb B  I16..4:  0.2%  0.2%  0.1%  B16..8: 11.0%  0.9%  0.1%  direct: 0.2%  skip:87.3%  L0:39.7% L1:58.3% BI: 2.1%
[libx264 @ 0x30b0540] 8x8 transform intra:45.5% inter:57.2%
[libx264 @ 0x30b0540] coded y,uvDC,uvAC intra: 34.9% 54.1% 9.8% inter: 1.8% 3.3% 0.0%
[libx264 @ 0x30b0540] i16 v,h,dc,p: 42% 28% 19% 11%
[libx264 @ 0x30b0540] i8 v,h,dc,ddl,ddr,vr,hd,vl,hu: 21% 19% 37%  4%  3%  3%  4%  4%  5%
[libx264 @ 0x30b0540] i4 v,h,dc,ddl,ddr,vr,hd,vl,hu: 31% 18% 21%  5%  5%  6%  5%  6%  4%
[libx264 @ 0x30b0540] i8c dc,h,v,p: 48% 23% 22%  6%
[libx264 @ 0x30b0540] Weighted P-Frames: Y:0.9% UV:0.7%
[libx264 @ 0x30b0540] ref P L0: 65.8%  9.5% 11.3%  4.0%  2.7%  2.4%  2.0%  1.6%  0.7%  0.0%
[libx264 @ 0x30b0540] ref B L0: 83.3%  7.4%  4.0%  1.9%  1.4%  1.1%  0.9%
[libx264 @ 0x30b0540] ref B L1: 92.0%  8.0%
[libx264 @ 0x30b0540] kb/s:222.38
